<svg width="142" height="58" viewBox="0 0 142 58" fill="none" xmlns="http://www.w3.org/2000/svg">
<path d="M83.3867 22.233H86.8553V20.4783C86.8553 19.1453 87.0185 18.0707 87.345 17.2546C87.6714 16.4112 88.1067 15.7719 88.6508 15.3367C89.1949 14.8742 89.807 14.575 90.4871 14.4389C91.1944 14.2757 91.9289 14.1941 92.6907 14.1941C94.1869 14.1941 95.2751 14.2893 95.9552 14.4797V18.1115C95.656 18.0299 95.3295 17.9755 94.9758 17.9483C94.6494 17.8939 94.2549 17.8667 93.7925 17.8667C93.1667 17.8667 92.6227 18.0163 92.1602 18.3156C91.7249 18.6148 91.5073 19.1997 91.5073 20.0702V22.233H95.4655V25.7015H91.5073V43.33H86.8553V25.7015H83.3867V22.233Z" fill="black"/>
<path d="M99.6504 21.6504L104.04 22.4564L100.24 43.1513L95.8505 42.3453L99.6504 21.6504Z" fill="black"/>
<path d="M99.6504 21.6504L104.04 22.4564L103.465 25.592L99.0746 24.786L99.6504 21.6504Z" fill="black"/>
<path d="M80.4623 38.6359C80.4623 39.2072 80.5303 39.6153 80.6664 39.8601C80.8296 40.1049 81.1288 40.2274 81.5641 40.2274C81.7001 40.2274 81.8634 40.2274 82.0538 40.2274C82.2442 40.2274 82.4619 40.2002 82.7067 40.1458V43.3695C82.5435 43.4239 82.3258 43.4783 82.0538 43.5327C81.8089 43.6143 81.5505 43.6823 81.2785 43.7367C81.0064 43.7911 80.7344 43.8319 80.4623 43.8591C80.1903 43.8864 79.959 43.9 79.7686 43.9C78.8165 43.9 78.0275 43.7095 77.4018 43.3287C76.7761 42.9478 76.368 42.2813 76.1776 41.3291C75.2527 42.2269 74.1101 42.8798 72.7498 43.2879C71.4168 43.6959 70.1246 43.9 68.8732 43.9C67.921 43.9 67.0097 43.7639 66.1391 43.4919C65.2686 43.247 64.4933 42.8798 63.8131 42.3901C63.1602 41.8732 62.6298 41.2339 62.2217 40.4722C61.8408 39.6833 61.6504 38.7719 61.6504 37.7382C61.6504 36.4324 61.8816 35.3714 62.3441 34.5553C62.8338 33.7391 63.4595 33.0998 64.2212 32.6374C65.0102 32.1749 65.8807 31.8484 66.8329 31.658C67.8122 31.4404 68.7916 31.2771 69.7709 31.1683C70.6143 31.0051 71.4168 30.8963 72.1785 30.8419C72.9403 30.7603 73.6068 30.6378 74.1781 30.4746C74.7766 30.3114 75.2391 30.0665 75.5655 29.7401C75.9192 29.3864 76.096 28.8696 76.096 28.1894C76.096 27.5909 75.9464 27.1013 75.6471 26.7204C75.3751 26.3395 75.0214 26.0539 74.5861 25.8635C74.1781 25.6458 73.7156 25.5098 73.1987 25.4554C72.6818 25.3738 72.1921 25.333 71.7297 25.333C70.4239 25.333 69.3493 25.605 68.5059 26.1491C67.6626 26.6932 67.1865 27.5365 67.0777 28.6791H62.4257C62.5073 27.3189 62.8338 26.1899 63.4051 25.2922C63.9764 24.3944 64.6973 23.6735 65.5678 23.1294C66.4656 22.5853 67.4722 22.2045 68.5875 21.9869C69.7029 21.7692 70.8455 21.6604 72.0153 21.6604C73.0491 21.6604 74.0693 21.7692 75.0758 21.9869C76.0824 22.2045 76.9801 22.5581 77.7691 23.0478C78.5852 23.5375 79.2381 24.1768 79.7278 24.9657C80.2175 25.7274 80.4623 26.666 80.4623 27.7814V38.6359ZM75.8103 32.7598C75.103 33.2222 74.2325 33.5079 73.1987 33.6167C72.1649 33.6983 71.1312 33.8343 70.0974 34.0248C69.6077 34.1064 69.1316 34.2288 68.6692 34.392C68.2067 34.5281 67.7986 34.7321 67.445 35.0041C67.0913 35.249 66.8056 35.589 66.588 36.0243C66.3976 36.4324 66.3024 36.9356 66.3024 37.5341C66.3024 38.051 66.452 38.4863 66.7512 38.8399C67.0505 39.1936 67.4041 39.4792 67.8122 39.6969C68.2475 39.8873 68.71 40.0233 69.1996 40.1049C69.7165 40.1866 70.179 40.2274 70.5871 40.2274C71.104 40.2274 71.6617 40.1594 72.2602 40.0233C72.8587 39.8873 73.4163 39.6561 73.9332 39.3296C74.4773 39.0032 74.9262 38.5951 75.2799 38.1054C75.6335 37.5885 75.8103 36.9628 75.8103 36.2283V32.7598Z" fill="black"/>
<path d="M34 14.1941H46.0788C48.3096 14.1941 50.2411 14.575 51.8734 15.3367C53.5056 16.0984 54.8387 17.1458 55.8724 18.4788C56.9062 19.7846 57.6679 21.3216 58.1576 23.0899C58.6745 24.8582 58.933 26.7489 58.933 28.762C58.933 30.7751 58.6745 32.6658 58.1576 34.4341C57.6679 36.2024 56.9062 37.7531 55.8724 39.0861C54.8387 40.3919 53.5056 41.4256 51.8734 42.1874C50.2411 42.9491 48.3096 43.33 46.0788 43.33H34V14.1941ZM39.1008 39.1677H44.1201C46.106 39.1677 47.7247 38.9092 48.9761 38.3924C50.2547 37.8483 51.2477 37.1138 51.955 36.1888C52.6895 35.2367 53.1792 34.1349 53.424 32.8835C53.6961 31.6049 53.8321 30.2311 53.8321 28.762C53.8321 27.293 53.6961 25.9328 53.424 24.6814C53.1792 23.4028 52.6895 22.301 51.955 21.376C51.2477 20.4239 50.2547 19.6894 48.9761 19.1725C47.7247 18.6284 46.106 18.3564 44.1201 18.3564H39.1008V39.1677Z" fill="black"/>
<path d="M101.993 16.442C102.08 16.2414 102.365 16.2414 102.452 16.442L102.955 17.6016C102.98 17.6598 103.027 17.7062 103.085 17.7314L104.244 18.2346C104.445 18.3217 104.445 18.6062 104.244 18.6933L103.085 19.1966C103.027 19.2218 102.98 19.2682 102.955 19.3264L102.452 20.486C102.365 20.6866 102.08 20.6866 101.993 20.486L101.49 19.3264C101.464 19.2682 101.418 19.2218 101.36 19.1966L100.2 18.6933C99.9997 18.6062 99.9997 18.3217 100.2 18.2346L101.36 17.7314C101.418 17.7062 101.464 17.6598 101.49 17.6016L101.993 16.442Z" fill="black"/>
<path d="M105.499 14.5284C105.587 14.3278 105.871 14.3278 105.958 14.5284L106.172 15.0211C106.197 15.0792 106.244 15.1256 106.302 15.1509L106.794 15.3647C106.995 15.4517 106.995 15.7363 106.794 15.8233L106.302 16.0371C106.244 16.0624 106.197 16.1088 106.172 16.1669L105.958 16.6596C105.871 16.8602 105.587 16.8602 105.499 16.6596L105.286 16.1669C105.26 16.1088 105.214 16.0624 105.156 16.0371L104.663 15.8233C104.463 15.7363 104.463 15.4517 104.663 15.3647L105.156 15.1509C105.214 15.1256 105.26 15.0792 105.286 15.0211L105.499 14.5284Z" fill="black"/>
</svg>
