<svg width="44" height="44" viewBox="0 0 44 44" fill="none" xmlns="http://www.w3.org/2000/svg">
<path d="M43.5483 36.4917C29.181 27.7957 14.8131 45.1852 0.445312 36.4917C0.445312 26.8312 0.445312 17.1702 0.445312 7.50996C14.8131 16.2047 29.181 -1.1848 43.5483 7.50996V36.4917Z" fill="white"/>
<path d="M43.2004 35.9346C29.0683 27.7913 14.9365 44.4771 0.804688 36.3511C0.804688 26.9269 0.804688 17.5021 0.804688 8.07796C14.9365 16.2043 29.0683 -0.4816 43.2004 7.6604V35.9346Z" fill="#1A7240"/>
<path d="M10.9497 17.5604C10.9497 17.5604 11.2064 17.1794 11.2064 16.836C11.2064 16.4914 10.9964 16.5645 10.918 16.6266C10.839 16.6923 10.6844 16.8529 10.7646 16.9431C10.8432 17.032 10.9295 16.8627 10.9837 16.859C11.0385 16.8554 11.0531 16.8833 11.0531 17.0271C11.0531 17.1708 10.9497 17.5604 10.9497 17.5604Z" fill="white"/>
<path d="M10.3333 17.6586C10.3333 17.6586 10.3498 19.4387 10.7386 19.4181C10.7386 19.4181 10.9109 19.4083 10.9589 18.9431C11.0095 18.4779 11.2097 17.314 11.6946 17.2688C12.1797 17.2202 11.4512 18.2272 11.8364 19.0064C11.8364 19.0064 11.9757 19.2975 12.2393 19.2658C12.2393 19.2658 12.1743 18.0397 12.0908 17.6366C12.008 17.2323 12.0543 17.2274 12.0543 17.2274C12.0543 17.2274 11.8668 17.0205 11.988 16.8025C12.1103 16.5858 12.1706 16.4994 12.2831 16.6638C12.3931 16.8305 12.793 17.3455 12.4279 17.5866C12.4785 18.1139 12.5283 18.641 12.5788 19.1682C12.5788 19.1694 12.9616 18.8746 12.8692 18.4437C12.7767 18.0103 12.5819 17.377 12.8169 16.9972C12.8169 16.9972 13.1345 17.1578 13.1345 17.4733C13.1345 17.7899 13.1103 19.0623 13.7473 18.9563C14.3833 18.8467 13.5921 17.5683 13.5921 17.3112C13.5921 17.3112 13.5617 17.2479 13.7144 17.0616C13.8659 16.8741 13.8849 16.8109 14.0017 16.9118C14.1168 17.0129 14.3279 17.1858 14.3279 17.3939C14.3279 17.6021 14.1497 17.5461 14.1497 17.5461C14.1497 17.5461 14.3645 18.1878 14.3645 18.643C14.3645 19.0997 14.1003 19.521 13.6117 19.6026C13.1235 19.6818 13.0305 19.0936 13.0305 19.0949C13.0305 19.0949 12.7602 19.5699 12.6223 19.6795C12.6575 20.3431 12.6923 21.0066 12.7275 21.6696C12.7275 21.6696 12.7152 21.9717 12.5493 22.1492C12.5493 22.1492 12.5134 22.1688 12.4993 21.9642C12.4847 21.7621 12.2943 19.9449 12.2943 19.9449C12.2943 19.9497 11.4349 20.186 11.4349 18.9075C11.4349 18.9075 11.4447 18.6957 11.4671 18.446C11.4914 18.1964 11.4641 17.9323 11.385 18.1356C11.3058 18.34 11.2791 18.5179 11.1543 19.1546C11.029 19.7903 10.8701 19.9753 10.6821 19.9862C10.4952 19.996 10.1484 19.4334 10.1484 18.4959C10.1483 17.5588 10.3333 17.6586 10.3333 17.6586Z" fill="white"/>
<path d="M13.4576 16.4062C13.4576 16.4062 13.4874 16.7521 13.6139 16.7314C13.7418 16.7094 13.7594 16.4598 13.7594 16.4598C13.7594 16.4598 13.8087 16.4975 13.8087 16.6583C13.8087 16.8178 13.6894 16.9017 13.6243 16.9115C13.558 16.9225 13.4357 16.8713 13.4357 16.7935C13.4357 16.7923 13.3784 16.9384 13.2032 16.9651C13.0292 16.9919 12.9531 16.7923 12.9531 16.6669C12.9531 16.5414 13.0037 16.4281 13.0438 16.4221C13.084 16.4159 13.1021 16.5962 13.1021 16.6327C13.1021 16.6717 13.1332 16.7898 13.2086 16.7788C13.2842 16.7667 13.3566 16.6888 13.4576 16.4062Z" fill="white"/>
<path d="M10.3125 21.6638C10.3125 21.6613 10.9193 20.8 11.8655 20.4541C11.8655 20.4541 12.0293 20.3702 12.0293 20.5418C12.0293 20.716 12.0512 20.7075 11.829 20.7964C11.6069 20.8852 11.022 21.1914 10.3125 21.6638Z" fill="white"/>
<path d="M17.3326 19.5865C17.3326 19.5086 17.3261 19.0627 17.2498 19.0775C17.1744 19.0944 16.979 19.299 17.0156 19.3283C17.0521 19.36 17.1805 19.9007 16.8804 19.9761C16.5797 20.0515 16.4953 19.3394 16.4953 19.3394C16.3298 19.8471 16.1161 20.2209 15.8904 20.2719C15.6672 20.323 15.6074 20.0467 15.6074 19.9773C15.6074 19.9067 15.6597 19.5817 15.5386 19.6085C15.4163 19.6366 15.1686 19.9615 15.1686 19.9615C15.1127 19.1664 15.0567 18.3714 15.0006 17.5763C15.1692 17.7224 15.2709 17.563 15.2709 17.3913C15.2709 17.2196 14.9344 16.3892 14.8552 16.2687C14.7766 16.1506 14.6214 16.3576 14.4899 16.5804C14.3566 16.8033 14.5064 16.9579 14.5064 16.9579C14.5064 17.2342 14.5404 17.6592 14.639 18.4907C14.7381 19.3235 14.8221 20.2598 14.8221 20.2598C14.7144 20.3451 14.6067 20.4303 14.4989 20.5143C14.4989 20.513 14.292 19.8532 13.7369 19.9492C13.1833 20.0405 13.1868 20.5045 13.1868 21.1991C13.1868 21.8981 14.2579 21.182 14.2579 21.1772C14.2579 21.63 13.5982 22.6821 12.7182 22.7992C11.8364 22.9112 12.0543 21.3331 12.0543 21.3379C11.5438 22.4386 11.8583 23.4905 12.7 23.3811C13.5417 23.269 14.3085 22.3412 14.491 21.9395C14.6736 21.5377 14.5994 20.988 14.5994 20.988C14.6821 20.9247 14.7642 20.8601 14.8471 20.7957C14.8471 20.7957 14.9117 21.623 14.7923 22.1953C14.6737 22.77 13.5502 23.7561 12.6148 23.873C11.6813 23.99 11.5723 23.111 11.5723 22.8504C11.5723 22.585 11.6338 22.2757 11.6338 22.0783C11.6338 21.881 11.5857 21.7959 11.5857 21.7959C11.3184 22.171 11.3282 23.0062 11.3282 23.0062C11.3282 24.5574 12.0804 24.5478 12.543 24.4843C13.0054 24.4233 13.743 24.2237 14.654 23.4104C15.5646 22.5922 15.212 20.5692 15.212 20.5704C15.2347 20.5413 15.2577 20.5119 15.2802 20.4815C15.2802 20.4815 15.2704 20.7909 15.7257 20.6897C16.1803 20.5861 16.4062 20.1867 16.4062 20.1867C16.5875 20.4217 16.8369 20.3597 16.8369 20.3597C17.3684 20.2257 17.3326 19.6669 17.3326 19.5865ZM13.7433 20.888C13.523 20.9245 13.487 20.5251 13.6612 20.4959C13.8364 20.4668 14.0604 20.7443 14.0604 20.7443C14.0604 20.7443 13.9654 20.8503 13.7433 20.888Z" fill="white"/>
<path d="M10.729 22.4844C10.729 22.4844 10.7977 22.779 10.6833 23.0957C10.5702 23.4122 10.5014 24.5225 11.0649 23.7651C11.0649 23.7627 11.2772 24.4737 10.729 24.5079C10.1789 24.5346 10.3966 23.3269 10.5458 22.9153C10.6936 22.5016 10.729 22.4844 10.729 22.4844Z" fill="white"/>
<path d="M16.3102 21.3769C16.3102 21.3769 16.0625 21.5767 16.0625 21.2917C16.0625 21.0075 16.3071 20.9808 16.3071 20.9808C16.3071 20.982 16.5182 20.9466 16.5182 21.3552C16.5182 21.7644 16.2676 22.0225 16.2676 22.0225C16.2676 22.0225 16.3919 21.5961 16.3102 21.3769Z" fill="white"/>
<path d="M17.5355 15.9065C17.5355 15.8127 17.5027 15.5265 17.2727 15.5863C17.0414 15.6459 16.8106 15.9236 16.8106 16.2571C16.8106 16.5907 16.9743 16.6249 16.9743 16.6249C16.5265 17.4612 14.9629 18.6996 15.9758 18.03C16.9883 17.3516 17.2264 16.7296 17.2264 16.732C17.5727 16.659 17.3743 16.4336 17.3743 16.4336C17.3743 16.4336 17.5355 15.9979 17.5355 15.9065ZM17.1569 16.2852C17.0608 16.2292 17.087 16.1342 17.1137 16.0623C17.1398 15.9894 17.2652 15.8882 17.2652 16.0148C17.2652 16.144 17.1569 16.2852 17.1569 16.2852Z" fill="white"/>
<path d="M17.2823 17.9865C17.2823 17.9865 17.2555 18.5149 16.8246 18.6232C16.3907 18.7303 16.4735 18.0206 16.9231 17.5834C16.9231 17.5834 17.0059 17.5554 16.9092 17.755C16.8142 17.9523 16.6225 18.4149 16.889 18.348C17.1569 18.2799 17.2823 17.9865 17.2823 17.9865Z" fill="white"/>
<path d="M19.9952 15.1758C19.9952 15.1758 19.9027 15.1307 19.9921 14.9908C20.0802 14.8531 20.1636 14.841 20.2488 15.0212C20.3347 15.2002 20.4076 15.6238 20.213 16.1657C20.213 16.1657 20.2823 15.4107 19.9952 15.1758Z" fill="white"/>
<path d="M20.5121 18.0993C20.5121 18.0993 20.6211 18.4973 20.7403 18.462C20.8589 18.4267 20.8785 17.9739 20.8785 17.9739C20.8785 17.9739 21.0568 18.2966 21.1518 18.2674C21.2473 18.2393 21.2504 17.7305 21.2504 17.7305C21.2504 17.7305 21.3836 17.8217 21.3836 18.0959C21.3836 18.3698 21.2047 18.4672 21.1464 18.4855C21.086 18.5024 20.9309 18.4234 20.9309 18.4234C20.9309 18.4234 20.8786 18.6742 20.7063 18.7253C20.5353 18.7762 20.4129 18.4731 20.5121 18.0993Z" fill="white"/>
<path d="M25.154 13.4268C25.154 13.4268 25.2563 13.1809 25.3744 13.2966C25.4926 13.411 25.6239 13.6789 25.6239 14.01C25.6239 14.3435 25.4145 14.5567 25.4145 14.5567C25.4145 14.5567 25.507 13.9577 25.2903 13.8018C25.0738 13.6472 25.0665 13.6276 25.154 13.4268Z" fill="white"/>
<path d="M25.2576 15.0969C25.2576 15.0969 25.3307 15.3282 25.4087 15.3076C25.484 15.2857 25.5498 14.9398 25.5498 14.9398C25.5498 14.9398 25.6229 15.209 25.7154 15.1846C25.8067 15.159 25.8978 14.75 25.8978 14.75C25.8978 14.75 25.9648 14.8413 25.9648 15.0873C25.9648 15.3321 25.8286 15.3928 25.791 15.4026C25.7544 15.4134 25.651 15.439 25.5814 15.3198C25.5814 15.3198 25.5144 15.4816 25.3576 15.5255C25.2041 15.5693 25.1893 15.2834 25.2576 15.0969Z" fill="white"/>
<path d="M32.2105 12.5137C32.2105 12.5137 32.3105 12.286 32.4297 12.4225C32.5477 12.56 32.6792 12.8558 32.6792 13.1871C32.6792 13.517 32.4685 13.6913 32.4685 13.6913C32.4685 13.6913 32.5612 13.1092 32.347 12.9119C32.1277 12.7171 32.1204 12.6975 32.2105 12.5137Z" fill="white"/>
<path d="M22.691 21.3515C22.691 21.3515 23.0342 20.9455 23.2132 20.8919C23.3897 20.8384 23.1925 21.2152 23.1925 21.3076C23.1925 21.4001 23.1511 21.6097 23.4358 21.3855C23.7231 21.1615 23.9836 20.9782 24.0334 20.9819C24.0821 20.9892 23.6209 21.6437 23.2023 21.7678C22.7837 21.8943 22.9879 21.3855 23.0013 21.3222C23.0148 21.259 23.0305 21.164 22.7981 21.3393C22.5631 21.5145 22.691 21.3515 22.691 21.3515Z" fill="white"/>
<path d="M30.6253 19.127C30.6253 19.127 30.8932 19.0624 30.8932 19.2135C30.8932 19.3656 30.6363 19.586 30.8567 19.5531C31.0795 19.5202 31.0709 19.6919 30.8884 19.805C30.7021 19.9182 30.3125 20.174 30.3125 19.9439C30.3125 19.7102 30.5888 19.7456 30.5888 19.5446C30.5888 19.3425 30.3844 19.4849 30.3844 19.3364C30.3842 19.1891 30.6253 19.127 30.6253 19.127Z" fill="white"/>
<path d="M29.675 16.62C29.675 16.62 29.7798 16.43 29.927 16.5725C30.0768 16.7101 30.1364 16.8915 30.1364 17.0936C30.1364 17.2921 29.9818 17.4601 29.9403 17.4624C29.8978 17.4612 29.9451 17.2847 29.9451 17.1495C29.9451 17.0131 29.7371 16.8803 29.6665 16.839C29.5935 16.7978 29.63 16.6663 29.675 16.62Z" fill="white"/>
<path d="M29.9554 15.6677C29.9554 15.6677 30.1075 15.5252 30.1075 15.8162C30.1075 16.1109 29.8131 16.0781 29.2347 16.6284C28.6556 17.1824 28.8196 16.8707 28.8465 16.8219C28.8746 16.771 29.9554 15.6629 29.9554 15.6677Z" fill="white"/>
<path d="M28.886 14.9607C28.886 14.9607 29.0662 15.1774 29.1755 15.3868C29.2877 15.5938 29.4046 15.6437 29.4094 15.3564C29.4142 15.0691 29.4094 14.6563 29.4094 14.6563C29.4094 14.6563 29.4021 14.4834 29.5092 14.4628C29.6138 14.442 29.6187 14.5809 29.6893 14.492C29.7574 14.4018 29.6918 14.3057 29.6724 14.2424C29.6516 14.179 29.5774 14.0219 29.4071 14.2119C29.2365 14.4007 29.2512 14.5784 29.2731 14.7878C29.2952 14.996 29.323 15.3516 29.1856 15.0751C29.0457 14.7988 28.9666 14.5224 28.7814 14.5626C28.5965 14.6016 28.6403 15.1057 28.7595 15.0789C28.8787 15.0545 28.886 14.9595 28.886 14.9607Z" fill="white"/>
<path d="M23.7659 18.9997C23.301 19.2188 21.085 19.847 21.085 19.846C21.886 19.2275 22.3905 18.8975 22.3905 18.8975C22.4454 18.9096 22.5001 18.9207 22.5536 18.9329C22.5561 18.8878 22.5584 18.8417 22.5597 18.7965C22.5597 18.7965 23.4299 18.1975 23.4299 17.7493C23.4299 17.2976 22.8166 17.1149 22.4209 17.2354C22.0246 17.3548 21.7727 17.9356 21.7727 18.2131C21.7727 18.4919 21.9011 18.5857 21.9011 18.5857C21.9011 18.5857 20.516 19.4782 20.3376 19.6645C20.1593 19.8495 20.0505 20.2148 20.0505 20.4072C20.0505 20.5996 20.541 20.4145 20.541 20.4145C21.5299 20.1187 21.718 20.3391 21.718 20.3391C20.7383 21.0087 20.9865 21.6877 20.9865 21.6877C20.2447 21.6731 20.1005 21.337 19.9915 20.9589C19.8831 20.5814 19.7846 19.812 19.6652 19.4127C19.5465 19.0108 19.1351 18.0953 19.0518 18.1185C18.9672 18.1428 18.725 18.6737 18.8242 18.9306C18.9228 19.1912 19.4724 20.8337 19.4724 20.8337C18.9192 22.0556 18.1268 22.8615 17.612 22.9955C17.0978 23.1319 17.1762 22.635 17.1762 22.635C18.2005 21.8362 18.6569 20.9018 18.6569 20.4099C18.6569 19.9143 18.4231 19.4456 18.4231 19.4456C18.4231 19.4456 18.5862 19.4944 18.5862 19.3202C18.5862 19.1473 18.1018 18.7431 18.0234 18.7637C17.943 18.7858 17.7209 19.2252 17.7209 19.3944C17.7209 19.5625 17.9088 19.5625 17.9088 19.5613C17.9088 19.5625 18.3196 20.0043 18.3196 20.4634C18.3196 20.9262 17.271 21.9045 17.271 21.9021C17.271 21.9021 17.38 21.1081 17.2406 21.1691C17.1018 21.2275 16.8108 22.3502 16.8108 22.3502C16.8108 22.355 15.623 23.3803 15.5584 23.4192C15.494 23.468 14.3638 24.1887 14.8185 24.096C15.2737 24.0133 16.7909 22.9686 16.7909 22.9613C16.8049 23.7964 17.5894 23.6164 17.5894 23.6139C18.6514 23.3339 19.6404 21.4685 19.6404 21.4708C20.2805 22.7299 21.5793 22.3743 21.8823 22.2842C22.1836 22.1916 22.2273 21.9117 22.2273 21.7242C22.2273 21.5367 21.3516 21.6973 21.3516 21.281C21.3516 20.8666 23.0879 19.9678 23.5176 19.7609C23.9497 19.554 23.9631 19.4213 24.0141 19.2665C24.0629 19.1153 24.231 18.778 23.7659 18.9997ZM22.3323 17.8965C22.3882 17.8794 22.8459 17.9719 22.8459 18.0244C22.8459 18.0769 22.325 18.3373 22.325 18.3373C22.2396 18.1254 22.2761 17.9136 22.3323 17.8965Z" fill="white"/>
<path d="M17.9839 15.9517C17.9839 15.9517 17.9212 16.5957 17.9212 16.9464C17.9212 17.3007 18.1623 17.7135 18.36 17.6587C18.5572 17.6039 19.0885 15.4998 19.5073 15.3769C19.9266 15.2552 19.593 15.853 19.593 16.8441C19.593 17.8329 20.2133 17.3043 20.2825 17.2545C20.3525 17.202 20.8138 16.8015 20.8138 16.1855C20.8138 15.5681 20.599 15.0287 20.599 14.9264C20.599 14.8229 20.7859 14.3346 20.8826 14.4029C20.9799 14.471 21.1528 15.0141 21.1528 15.4292C21.1528 15.8457 21.3116 16.8599 21.8028 16.7114C22.2945 16.5628 21.9518 15.5438 21.8953 15.378C21.8392 15.2089 21.5988 14.8167 21.6896 14.6731C21.7827 14.5294 21.8982 14.3187 21.9378 14.231C21.978 14.1446 22.1132 14.1994 22.2239 14.2871C22.336 14.3748 22.561 14.5987 22.561 14.8654C22.561 15.1333 22.2287 14.8971 22.2287 14.8971C22.2287 14.8971 22.4454 15.4705 22.4454 16.0319C22.4454 16.5934 22.1497 17.0839 21.7928 17.191C21.4374 17.2994 21.0175 16.9062 21.0175 16.9062C21.0175 16.9049 20.6651 17.7585 19.9391 17.9716C19.2144 18.1848 19.2728 17.0499 19.2728 17.051C19.2728 17.051 19.3324 16.4301 19.2534 16.4813C19.1742 16.5288 18.9406 17.3153 18.8578 17.571C18.7745 17.8304 18.6924 18.0983 18.4586 18.1629C18.2244 18.2287 17.7266 17.7891 17.7266 17.0622C17.7264 16.3376 17.9839 15.9517 17.9839 15.9517Z" fill="white"/>
<path d="M23.5574 14.7229C23.7412 14.9384 23.9262 15.1538 24.1098 15.3705C24.0806 15.0613 24.0515 14.7532 24.021 14.4452C24.021 14.4452 23.9128 14.3881 23.9128 14.2395C23.9128 14.0922 24.0223 13.7185 24.1733 13.6734C24.3254 13.6283 24.7576 14.572 24.7576 14.8106C24.7576 15.0492 24.5398 14.9373 24.5398 14.9373C24.5531 15.294 24.5679 15.6519 24.5823 16.0099C24.5823 16.0074 25.7606 17.3931 26.1745 18.3488C26.5906 19.2997 26.3375 19.3461 26.2254 19.1172C26.1135 18.8834 25.2737 17.3321 24.6505 16.7564C24.6505 16.7564 24.8426 18.6959 24.8426 19.1793C24.8426 19.6651 24.6942 20.6794 24.4726 20.7439C24.2487 20.8085 24.5652 20.0512 24.5505 19.6566C24.5359 19.2572 24.2683 16.7989 24.1502 16.1353C23.7472 15.6934 23.3455 15.2538 22.9439 14.8154C22.9439 14.8154 22.7055 14.9177 22.7055 14.5804C22.7055 14.2456 22.6311 13.9448 22.7847 13.8985C22.9379 13.8524 23.8534 14.4294 23.8534 14.5804C23.8531 14.7277 23.5574 14.7229 23.5574 14.7229Z" fill="white"/>
<path d="M26.7134 14.1208C26.7134 14.1208 26.6965 14.7613 26.8278 15.8755C26.9593 16.9883 26.9799 17.8152 26.9799 18.2704C26.9799 18.7355 27.1174 20.8639 24.8364 21.5049C24.8364 21.5049 24.6953 21.5511 24.6953 21.4951C24.6953 21.439 24.8341 21.349 25.0349 21.2248C25.2358 21.0952 26.7547 20.2173 26.6293 18.4469C26.504 16.6716 26.2946 13.8701 26.1948 13.8043C26.1948 13.8043 26.1023 13.7799 26.1023 13.6022C26.1023 13.4232 26.4515 12.9884 26.543 12.9653C26.6353 12.941 26.9276 13.8579 26.9276 14.0502C26.9278 14.2438 26.7134 14.1208 26.7134 14.1208Z" fill="white"/>
<path d="M27.8117 13.9928C27.8117 13.9928 28.1974 17.3338 28.3265 18.1582C28.4554 18.98 27.9858 19.5025 27.9004 19.5231C27.8177 19.5425 27.92 19.2248 27.92 18.7608C27.92 18.2945 27.4647 15.3698 27.3662 14.593C27.2676 13.815 27.1641 13.8455 27.1641 13.3609C27.1641 12.875 27.4697 12.6169 27.55 12.5985C27.6279 12.5791 27.7325 12.8848 27.7325 12.8848C27.7325 12.8835 27.9517 13.4827 28.0684 13.6373C28.1878 13.7932 28.1878 13.8736 28.1878 13.9344C28.1878 13.9928 27.9517 14.078 27.8117 13.9928Z" fill="white"/>
<path d="M27.5681 18.3933C27.5681 18.3933 27.5487 20.0237 28.0378 19.9103C28.0378 19.9103 28.1718 19.9627 28.5466 19.0276C28.924 18.095 29.1016 17.9013 29.2793 17.866C29.4572 17.8306 29.8102 18.47 30.1607 18.4092C30.5124 18.3494 30.6158 17.7906 30.6158 17.3962C30.6158 16.9968 30.4272 14.4557 30.4272 14.4557C30.0488 14.0307 29.6689 13.6132 29.2892 13.2017C29.2892 13.2017 29.2405 13.1627 29.2405 12.8436C29.2405 12.5246 29.1942 12.3275 29.3136 12.3043C29.433 12.2812 29.6093 12.5137 29.8345 12.6658C30.0584 12.818 30.151 12.8717 30.151 12.9836C30.151 13.0932 29.9842 13.053 29.9842 13.0542C30.1085 13.2149 30.2325 13.3769 30.3566 13.5401C30.3372 13.3234 30.3188 13.1078 30.2994 12.8911C30.2994 12.8911 30.1948 12.7632 30.1948 12.6111C30.1948 12.46 30.3761 12.0558 30.4893 12.0377C30.6035 12.0183 30.9567 12.9496 30.9567 13.1407C30.9567 13.3344 30.8033 13.154 30.8033 13.154C30.8204 13.5034 30.8398 13.8518 30.857 14.2012C31.0906 14.4849 31.3231 14.771 31.5555 15.0608C31.5555 15.0596 31.266 13.2843 31.266 12.5013C31.266 12.5013 31.2271 12.4696 31.2271 12.3565C31.2271 12.2433 31.4559 11.839 31.569 11.8244C31.6822 11.8098 31.9889 12.8253 31.9889 13.0614C31.9889 13.2916 31.8039 13.1515 31.8039 13.1526C31.866 13.9758 31.9281 14.8 31.9914 15.6232C31.9914 15.6196 32.8872 16.7945 33.0406 17.1404C33.1938 17.4812 33.1793 17.9939 33.1247 17.9719C33.0697 17.9525 32.639 17.1171 32.0572 16.4924C32.0572 16.4924 32.2238 17.8892 31.9122 18.1461C31.9122 18.1461 31.8818 17.5652 31.8818 17.2681C31.8818 16.971 31.7393 16.1066 31.7393 16.1066C31.4705 15.7595 31.2002 15.4186 30.9326 15.0802C30.9326 15.0802 31.0566 17.2097 31.0566 17.7929C31.0566 18.3773 30.7744 18.9497 30.2496 19.0386C29.7251 19.1274 29.265 18.5721 29.265 18.5721C29.265 18.5721 29.0862 18.7305 28.7174 19.5572C28.345 20.3827 28.2304 20.4752 28.0723 20.5117C27.9141 20.5471 27.2813 20.3229 27.2813 19.6826C27.2811 19.0363 27.5681 18.3933 27.5681 18.3933Z" fill="white"/>
<path d="M32.9108 12.3031C32.9108 12.3044 32.867 12.28 32.867 12.157C32.867 12.0352 33.0849 11.6845 33.1833 11.6797C33.2833 11.6724 33.7445 12.6513 33.7445 12.8438C33.7445 13.0362 33.5315 12.8231 33.5315 12.8231C33.5315 12.8231 33.5267 13.0044 33.6459 14.4949C33.7653 15.9987 34.448 18.6335 32.4774 19.5662C30.5093 20.5719 32.8743 18.9854 33.2077 18.1611C33.5401 17.3161 33.3452 16.2471 33.2333 15.1367C33.12 14.0283 32.9108 12.3031 32.9108 12.3031Z" fill="white"/>
<path d="M30.2202 26.3954C29.5118 26.5172 28.8033 26.6608 28.095 26.8241C28.0925 26.7608 28.0915 26.695 28.0888 26.6318C28.0888 26.6318 28.2338 26.4589 28.2338 26.364C28.2338 26.269 28.095 26.0401 27.9954 26.0643C27.8979 26.0863 27.7493 26.3372 27.7493 26.4635C27.7493 26.5879 27.9004 26.6779 27.9004 26.6779V26.8727C22.983 28.01 18.0658 29.9849 13.1484 30.7057C13.8605 31.2805 13.9269 31.3826 17.1188 30.6838C20.3113 29.9069 27.9369 27.3232 27.9369 27.474V27.7128C27.9369 27.7128 27.7847 27.8661 27.7847 27.9928C27.7847 28.1195 27.9139 28.2998 28.0295 28.273C28.1438 28.2461 28.2144 27.9807 28.2144 27.9807C28.4651 27.9222 28.7158 27.8686 28.9666 27.8151C28.9666 27.8151 28.9533 27.9711 29.1371 27.9321C29.3219 27.8956 29.3294 27.7225 29.3294 27.7225C29.5971 27.6688 29.8647 27.6203 30.1327 27.574C30.1327 27.574 30.2495 27.7323 30.4344 27.703C30.6193 27.6715 30.8532 27.5471 30.8532 26.8946C30.8532 26.242 30.2202 26.3954 30.2202 26.3954ZM30.0679 27.3938C29.8208 27.44 29.5725 27.4888 29.3267 27.5398C29.3267 27.5398 29.2755 27.4133 29.1367 27.4424C28.998 27.4716 28.9761 27.6325 28.9761 27.6325C28.7339 27.6861 28.4916 27.742 28.2495 27.8005C28.2495 27.8005 28.2141 27.6957 28.113 27.6592C28.1095 27.5813 28.1045 27.5034 28.1009 27.4254C28.7654 27.2575 29.4301 27.104 30.0946 26.9725C30.0946 26.9727 29.9886 27.2404 30.0679 27.3938Z" fill="white"/>
</svg>
